<svg width="2401" height="343" viewBox="0 0 2401 343" fill="none" xmlns="http://www.w3.org/2000/svg">
<path d="M389.991 20.4008C385.731 10.0725 379.233 3.57736 370.713 1.12839C353.245 -3.87604 330.238 8.79474 314.155 20.2943C294.131 34.5622 271.763 54.2605 247.692 78.7502C226.922 99.8327 210.732 118.786 198.057 136.674C197.205 135.715 195.182 132.734 194.436 131.669C194.117 131.137 193.904 130.818 193.797 130.605C170.151 98.9809 135.109 63.4175 97.7236 32.965C86.2204 23.4886 51.0716 -5.15377 26.0414 0.808954C16.9879 2.9385 10.0647 9.32713 5.37817 19.7619C-4.31438 41.2703 -0.90597 78.3243 15.6033 129.966C23.3786 154.349 52.8823 237.827 104.647 286.487C117.854 298.945 137.559 313.319 156.411 311.509C163.335 311.296 169.832 309.699 175.477 306.824C185.489 301.82 192.838 292.982 195.927 282.228C196.673 285.742 197.951 288.936 199.549 292.024C203.383 299.264 209.135 305.014 216.377 308.634C220.318 310.551 224.685 311.935 229.265 312.574C230.863 312.893 232.567 313 234.271 313C235.976 313 235.443 313 235.976 313C236.508 313 237.041 313 237.467 313H238.106V312.787C256.852 310.658 276.663 294.473 286.888 284.89C331.197 243.257 365.067 172.131 380.618 123.79C395.743 76.6207 398.938 41.8027 390.204 20.4008H389.991ZM198.057 142.849L199.655 145.724L196.779 150.09C196.247 149.345 195.288 147.96 195.182 147.747C194.756 146.683 196.886 144.234 198.164 142.956L198.057 142.849ZM187.832 204.18C187.3 201.731 186.767 199.176 186.98 197.259C187.193 195.023 188.365 192.468 189.537 189.912C190.176 188.528 190.815 187.144 191.347 185.866L194.33 193.426C193.584 195.556 192.625 197.898 191.773 200.028C190.708 202.796 189.536 205.565 188.578 208.333V208.12C188.471 206.949 188.152 205.565 187.832 204.18ZM173.453 192.361C173.027 190.019 172.708 187.57 172.814 185.866C173.027 184.269 175.69 178.626 176.862 176.603L178.885 183.63L173.879 196.088C173.879 195.023 173.56 193.746 173.347 192.361H173.453ZM171.856 179.478L168.98 170.001C164.506 157.224 156.944 144.127 145.867 130.072C134.79 116.017 100.386 78.3243 74.2911 72.894C65.4507 71.0839 58.7404 72.5746 54.267 77.366C42.0181 90.7822 51.4976 126.452 54.693 137.1C63.7464 167.126 90.6938 216.425 122.328 232.077C133.298 237.508 142.991 238.679 151.192 235.378C166.424 229.202 173.56 209.078 179.205 193C179.737 191.616 180.163 190.338 180.59 189.167L180.909 188.528C181.122 189.486 181.442 190.338 181.761 191.19C182.4 193.32 183.146 195.236 182.933 197.259L182.081 200.134C177.501 215.36 170.471 238.466 155.027 245.813C147.784 249.22 139.263 248.901 129.571 244.748C95.4869 230.267 68.859 177.88 63.853 167.552C54.3735 147.747 37.9707 103.772 43.7223 79.0697C45.746 70.3385 49.9 65.0147 55.8646 63.2046C57.5688 62.6722 59.273 62.4592 61.1902 62.4592C80.0427 62.4592 107.629 86.5231 116.15 94.5089C141.819 118.253 162.163 145.192 175.157 172.344L171.856 179.478ZM165.252 186.505C162.802 153.284 121.369 103.879 90.4809 88.2267C80.7883 83.3287 72.0544 82.3705 65.6637 85.4583C60.6577 87.9073 57.5688 92.6987 56.1842 99.6198C51.9237 122.193 68.7525 161.909 82.0664 182.885C91.4394 197.685 112.955 223.133 134.47 224.73C138.624 225.05 142.458 224.198 142.458 224.198C144.695 223.666 146.719 223.027 148.53 222.068C154.494 219.194 159.181 214.189 162.057 208.226C164.932 202.264 167.382 197.046 170.151 191.403C170.471 195.343 170.471 198.963 169.938 202.69C167.915 215.893 161.204 226.434 151.831 230.906C142.884 235.165 132.127 233.887 120.624 227.073C93.3567 210.995 68.433 168.83 58.7405 137.206C51.7107 114.207 49.7935 96.7449 53.4149 86.8425C55.6516 80.7733 59.273 77.1531 64.1725 75.9818C65.4507 75.6624 66.7288 75.5559 68.1134 75.5559C83.7706 75.5559 106.351 94.0829 118.919 105.902C138.305 123.897 162.589 152.113 168.98 184.589L165.145 193.107C165.145 192.255 165.145 191.403 165.145 190.551C165.145 189.167 165.145 187.783 165.145 186.399L165.252 186.505ZM151.405 214.296C139.157 225.05 122.221 217.916 110.505 207.694C87.392 187.676 65.2376 145.192 62.1488 115.059C61.0837 104.518 63.3204 96.4255 68.433 92.9117C70.4567 91.421 72.9065 90.7822 75.7823 90.7822C78.6581 90.7822 83.7706 91.9534 88.6702 94.2959C117.109 107.925 146.719 146.47 156.731 173.941C160.352 184.056 163.335 203.861 151.512 214.296H151.405ZM181.229 178.626C181.016 177.88 180.696 177.135 180.27 176.283C179.631 174.899 178.992 173.515 179.098 172.557C179.205 171.811 180.164 170.427 181.016 169.149C181.548 168.298 182.081 167.552 182.4 166.913C183.252 168.085 184.53 170.427 184.744 171.066C184.424 172.024 181.868 177.455 181.229 178.626ZM184.424 163.08C184.85 162.122 187.3 158.289 187.939 157.65L189.75 161.483L186.341 167.552L184.317 163.187L184.424 163.08ZM185.702 154.668C185.596 155.094 183.891 157.543 183.252 158.395L182.72 159.034C182.72 159.034 182.72 159.034 182.72 159.14C172.814 141.891 160.139 124.748 143.95 106.86C138.944 101.323 94.2088 52.6633 63.3204 46.2747C52.2432 43.9322 43.7223 45.8488 38.0772 51.705C24.3372 66.1859 30.9409 101.643 36.16 121.448C47.4502 164.571 69.8176 207.375 96.0195 236.017C109.014 250.285 142.139 280.844 168.873 257.951C175.583 252.202 179.524 244.535 183.039 237.082L185.489 230.267C185.702 241.66 183.785 262.956 167.063 273.284C145.121 286.913 120.198 267.96 107.203 255.396C65.1311 214.722 34.3493 142.637 25.5089 92.3793C21.3549 68.5284 22.5265 51.8115 29.1302 42.548C32.219 38.2889 36.4795 35.627 41.8051 34.7752C43.2963 34.5622 44.7874 34.4557 46.2786 34.4557C66.9418 34.4557 92.6111 55.1123 102.73 63.311C134.47 88.8656 163.122 120.17 185.596 153.817C185.809 154.136 185.809 154.349 185.702 154.668ZM185.17 219.939C180.483 241.554 166.743 265.618 142.885 262.636C119.452 259.655 93.4632 231.226 76.9539 205.565C54.693 170.959 32.6451 118.04 33.7103 78.1114C34.1363 63.8434 38.0772 54.6864 45.4265 50.9597C47.9828 49.682 50.9651 49.0431 54.3734 49.0431C63.853 49.0431 76.3148 54.154 90.5873 64.0564C124.778 87.8008 156.731 122.832 180.483 162.654C180.696 163.293 179.418 165.316 178.779 166.381C178.459 166.913 178.14 167.446 177.927 167.765C177.82 167.978 177.714 168.191 177.607 168.404L173.879 161.377C156.944 129.966 121.263 87.5878 86.1139 67.2507C70.4567 58.2001 58.4209 56.4965 50.326 62.2463C38.7163 70.445 37.8642 92.0599 40.8465 109.522C48.0893 151.155 76.5278 210.462 111.357 237.721C125.736 249.007 139.583 253.479 151.299 250.711C161.417 248.368 169.619 240.808 175.69 228.244L184.424 204.713C184.531 205.671 184.637 206.523 184.85 207.481C185.489 211.634 186.128 215.893 185.17 220.045V219.939ZM185.383 190.977L182.933 183.311C183.252 182.246 186.022 176.07 186.661 175.006L189.324 180.862L185.276 190.871L185.383 190.977ZM188.791 171.492L192.306 165.103L194.649 169.682L191.454 176.39L188.791 171.492ZM189.856 154.668C190.176 153.923 192.199 150.729 192.625 150.196L194.436 153.604C193.69 154.668 193.158 155.733 192.519 156.798C192.306 157.33 191.986 157.756 191.773 158.289C191.454 157.543 190.921 156.691 190.389 155.84C190.176 155.52 189.856 154.988 189.75 154.775L189.856 154.668ZM194.01 161.483C194.01 160.951 195.927 157.863 196.779 156.692C197.418 157.65 198.697 159.886 198.91 160.205C199.336 161.377 197.844 163.506 196.779 165.103C196.566 165.316 196.46 165.529 196.353 165.742C195.608 164.571 194.117 161.909 194.117 161.483H194.01ZM201.04 164.677L203.703 169.469L201.466 175.538C200.72 174.26 200.081 172.983 199.549 171.598C199.229 170.959 199.016 170.321 198.696 169.682L201.146 164.784L201.04 164.677ZM214.673 193.107C215.738 195.875 216.697 198.644 217.123 200.347C217.336 201.199 217.443 202.051 217.549 202.903C217.549 203.648 217.656 204.5 217.869 205.245C220.957 218.022 228.307 228.67 237.467 233.568C245.029 237.614 253.656 237.934 263.029 234.526C295.941 222.494 323.954 172.024 334.286 147.109C339.718 133.799 351.647 100.897 343.978 83.6482C341.209 77.366 336.842 73.6393 330.984 72.3616C310.534 68.1025 277.515 97.1708 271.124 103.027C253.23 119.425 230.117 145.298 221.383 176.283L218.401 170.427C234.804 136.567 260.047 106.328 291.255 82.7964C312.877 66.6118 329.599 59.9038 339.824 63.524C345.15 65.4406 348.771 70.1256 350.688 77.579C356.547 100.791 340.25 143.169 329.599 164.677C314.368 195.449 287.208 235.059 260.473 245.174C251.1 248.688 243.218 248.901 236.508 245.6C223.301 239.105 217.443 220.365 212.863 205.245C211.584 200.986 210.306 196.94 209.028 193.746C208.922 192.361 209.561 190.871 210.306 189.274C210.732 188.315 211.265 187.25 211.478 186.292C212.33 187.996 213.502 190.764 214.567 193.533L214.673 193.107ZM213.395 181.288C213.502 180.329 215.419 176.07 216.271 174.473C216.59 175.538 217.336 176.709 218.082 177.88C218.721 178.945 219.573 180.117 219.573 180.649C219.573 181.501 219.147 183.204 218.614 184.908C218.188 186.505 217.762 188.102 217.549 189.167C217.549 189.912 217.549 190.658 217.549 191.297L213.289 181.181L213.395 181.288ZM240.129 220.897C246.946 224.943 255.254 225.476 264.84 222.281C299.35 210.782 321.93 160.418 328.001 145.192C332.155 134.97 344.617 103.666 331.729 89.2915C321.611 78.0049 305.634 85.6712 294.557 92.4858C273.894 104.944 257.171 122.299 241.834 147.002C234.058 159.566 226.709 173.089 225.644 186.612C225.005 185.227 224.046 182.778 223.833 181.82C223.62 180.968 223.833 177.88 227.881 167.446C238.638 139.123 270.592 102.708 300.734 84.6065C313.409 77.0466 327.682 70.658 337.374 81.3057C345.363 90.1433 344.191 109.096 334.073 137.526C325.232 162.228 299.669 213.124 265.799 229.309C249.183 237.295 234.591 232.503 226.816 216.745C222.662 208.333 220.531 199.602 221.064 193C221.17 190.977 221.596 188.954 222.129 187.25L225.537 196.301C227.561 207.588 232.78 216.319 240.236 220.791L240.129 220.897ZM240.769 160.205C243.857 154.775 247.266 149.664 250.355 144.979C262.177 127.304 276.769 111.013 294.663 99.4068C312.557 87.8008 296.9 98.0226 297.965 97.3837C309.894 90.1433 318.735 88.5461 324.274 92.4858C330.345 96.9578 331.942 108.564 328.534 123.79C322.676 149.771 299.563 196.408 273.041 212.592C263.775 218.235 254.508 220.152 247.159 217.809C241.301 215.999 236.721 211.74 233.739 205.032C227.135 190.338 232.887 174.26 240.769 160.312V160.205ZM212.01 212.911C216.164 226.647 220.957 242.299 235.976 248.475C263.136 259.548 292.107 228.031 306.912 208.226C331.729 175.006 350.582 132.308 354.736 99.4068C356.973 81.6251 353.351 68.1025 344.724 62.1398C336.629 56.603 324.273 57.9872 309.255 66.1859C275.065 84.8194 244.816 119.212 227.987 145.298L215.632 165.849L212.863 160.525C226.922 137.526 245.881 114.527 269.527 92.3793C286.675 76.3013 308.829 57.0289 328.108 50.9597C339.718 47.3395 348.345 48.1913 353.777 53.6216C368.369 68.1025 356.973 110.693 353.138 123.471C342.38 159.14 324.38 193.959 302.439 221.536C278.261 251.989 256.319 265.618 237.467 262.104C215.951 258.058 209.561 232.29 205.3 215.147L204.768 212.911L207.217 199.069C209.028 203.222 210.519 207.907 212.01 212.911ZM213.821 170.001C213.715 170.64 211.478 175.964 211.158 176.603L208.283 170.001L211.265 164.464C211.584 165.103 212.01 165.742 212.436 166.487C213.182 167.659 214.034 169.043 213.928 169.895L213.821 170.001ZM208.922 180.862L207.111 187.996L203.276 180.01L205.726 174.26L208.922 180.862ZM201.466 184.589L205.087 193.107L202.424 205.671L198.057 193.426V193.107C199.016 190.338 199.868 187.25 201.466 184.695V184.589ZM203.703 228.138C203.703 226.86 203.809 225.476 203.916 224.198L209.241 239.85C215.312 253.799 223.94 262.317 234.91 265.085C247.905 268.386 263.349 263.382 279.432 250.711C314.261 223.24 343.765 166.594 356.333 125.494C361.233 109.735 371.245 71.1903 359.103 54.2605C355.481 49.2561 350.582 46.2747 344.511 45.4229C325.978 42.9739 300.734 60.7556 287.421 71.6163C259.408 94.4024 232.461 123.471 215.312 149.345L214.993 149.771C213.502 152.007 211.797 154.562 210.732 157.011C209.774 155.733 208.176 152.965 208.176 152.432C208.389 151.687 211.904 146.789 213.289 144.979C213.715 144.447 213.928 144.021 214.141 143.808C236.828 112.397 267.609 81.0927 298.285 57.8807C312.131 47.4459 338.013 30.6226 355.055 35.2011C361.02 36.7982 365.493 41.0573 368.263 47.7654C376.251 67.0377 367.411 102.388 358.57 128.688C343.02 175.112 308.936 237.721 271.124 265.511C253.763 278.288 236.295 282.122 223.088 276.159C211.797 271.154 204.768 259.123 203.17 242.406C202.744 237.614 202.957 232.823 203.17 228.138H203.703ZM208.496 160.418L205.726 165.742L203.276 161.057C203.703 160.099 205.726 156.479 206.152 155.946L208.496 160.525V160.418ZM201.04 157.33L198.91 153.497C199.442 152.539 201.466 149.238 201.785 148.919L204.022 152.858L201.04 157.33ZM173.666 304.162C164.4 308.847 154.601 308.847 148.21 308.102C134.257 305.44 119.878 296.815 104.434 281.696C65.3441 243.577 34.9883 178.839 19.5442 130.924C3.88699 82.264 -0.266901 46.7006 7.08239 25.1922C10.9168 14.0121 16.988 7.09111 25.1893 4.53565C27.6391 3.79031 30.3019 3.36442 33.1777 3.36442C46.1721 3.36442 63.0009 11.2437 84.4097 27.3218C116.15 51.1727 143.737 78.9632 161.311 98.0226C174.305 112.184 185.596 125.813 195.714 139.655C195.182 140.613 193.158 143.488 192.732 144.021C167.169 109.522 138.731 79.0697 108.268 53.7281C73.9716 25.1922 47.9828 12.9473 31.154 17.5259C22.9526 19.7619 16.9879 25.9376 13.3665 35.9464C6.23026 55.4317 10.0647 87.9073 24.6568 132.521C41.4856 183.843 74.5042 250.072 116.789 281.909C134.257 295.005 152.364 300.542 166.637 296.922C177.394 294.154 185.809 286.594 191.454 274.242L193.903 267.641C193.903 268.705 194.01 269.77 194.01 270.835C194.01 285.103 186.448 297.774 173.666 304.162ZM194.223 226.647L194.01 234.952L193.158 243.577C194.756 262.423 187.3 280.844 174.731 289.362C163.654 296.815 149.382 296.603 133.618 288.617C93.6762 268.386 62.3618 211.101 50.7521 187.463C41.3791 168.191 10.8103 101.536 13.7926 51.2791C14.3252 42.2286 16.8814 30.0902 25.7219 23.9145C29.4498 21.359 33.8168 20.0813 39.0358 20.0813C44.2549 20.0813 47.1307 20.8267 51.8172 22.2109C75.1432 29.4513 107.203 53.8346 146.825 94.7218C163.122 111.439 177.714 129.007 190.389 146.789L187.832 151.155H187.726C166.743 118.999 138.944 88.6526 105.073 60.7556C92.3981 50.3208 75.6758 37.7565 59.8056 33.178C46.1721 29.2384 35.734 30.6226 29.0237 37.1177C13.7926 51.918 20.2898 89.185 25.5089 110.161C35.947 152.113 56.7167 197.259 81.1079 230.693C95.2739 250.178 131.807 293.834 165.678 277.969C188.578 267.215 189.963 238.679 189.004 218.129L194.543 203.329L194.223 226.541V226.647ZM193.371 180.436L196.992 173.408L199.549 179.052C199.336 180.223 196.886 186.825 196.14 188.209L193.371 180.329V180.436ZM197.205 248.475L197.738 203.861L200.933 213.337V214.615C199.123 234.952 196.46 265.724 219.573 277.969C251.952 295.218 287.847 258.377 306.38 234.846C336.096 197.046 361.659 143.062 371.245 97.4902C375.612 76.5142 378.275 49.0431 365.706 36.9047C359.316 30.8355 349.623 29.3448 337.055 32.6456C310.64 39.4602 276.45 70.2321 258.343 87.9073C238.319 107.499 220.851 128.049 206.472 148.919L204.129 145.192C227.348 113.249 255.574 83.4352 288.06 56.603C303.61 43.7193 323.741 28.2801 341.954 22.4238C354.949 18.2712 364.748 19.2295 371.245 25.1922C387.115 39.8861 379.553 80.4538 375.612 97.2772C367.091 133.479 351.221 171.918 329.812 208.333C316.498 231.013 289.231 271.58 256 288.936C242.047 296.177 228.626 297.88 218.188 293.515C209.667 290.001 203.49 282.548 200.188 272.006C197.738 264.233 197.312 258.697 197.312 251.03C197.312 250.178 197.312 249.327 197.312 248.368L197.205 248.475ZM375.932 125.707C357.505 182.246 319.054 255.183 274.852 290.746C259.089 303.417 245.135 309.593 232.035 309.806C226.816 309.38 222.129 308.102 217.762 305.972C207.324 300.862 200.188 290.427 198.483 278.182C203.063 288.617 210.626 295.431 220.531 298.093C251.313 306.185 284.119 274.775 300.948 255.289C335.244 215.68 365.919 153.923 379.233 98.0226C382.429 84.5 391.589 39.2472 373.908 22.7433C366.559 15.9287 355.481 14.7575 340.996 19.336C321.717 25.4052 299.563 42.6545 284.545 55.1123C253.656 80.6668 225.218 110.906 202.211 142.53L200.294 139.442C212.01 123.258 226.176 106.647 243.431 88.5461C265.16 65.76 285.184 47.446 304.569 32.3262C316.179 23.2756 346.96 -0.681723 368.476 4.3227C375.825 6.02634 381.47 10.9243 385.518 19.0166C395.636 39.6731 392.547 75.6624 376.145 125.92L375.932 125.707Z" fill="white"/>
<path d="M576.404 93.7173V279.234H534.179V93.7173H467.852V59.1005H643.656V93.7173H576.428H576.404Z" fill="white"/>
<path d="M768.221 115.64V245.044H812.084V279.21H680.022V245.044H726.138V149.949H680.022V115.64H768.221ZM724.857 64.7711C725.996 61.9951 727.633 59.5987 729.72 57.582C731.808 55.6602 734.346 54.1654 737.288 53.0503C740.229 51.9351 743.503 51.3894 747.085 51.3894C754.463 51.3894 760.346 53.4773 764.687 57.6532C769.028 61.829 771.21 67.2149 771.21 73.7634C771.21 80.3119 769.028 85.674 764.687 89.8736C760.346 94.0495 754.486 96.1374 747.085 96.1374C743.503 96.1374 740.229 95.5917 737.288 94.4765C734.346 93.3614 731.832 91.8192 729.72 89.7787C727.633 87.8569 725.996 85.5317 724.857 82.7557C723.719 79.9797 723.126 76.9902 723.126 73.7634C723.126 70.5366 723.695 67.5471 724.857 64.7711Z" fill="white"/>
<path d="M880.072 135.452C883.156 128.405 887.426 122.83 892.882 118.749C898.314 114.668 904.933 112.627 912.713 112.627C916.509 112.627 919.901 113.078 922.89 113.98C925.879 114.881 928.489 116.305 930.671 118.203C932.355 119.626 933.826 121.311 935.083 123.257C936.341 125.226 937.408 127.456 938.31 129.995C939.709 127.575 941.275 125.392 943.03 123.423C944.786 121.453 946.707 119.769 948.795 118.369C951.381 116.566 954.346 115.142 957.619 114.146C960.917 113.149 964.499 112.627 968.389 112.627C973.276 112.627 977.854 113.529 982.101 115.356C986.347 117.159 990.071 120.054 993.25 123.968C996.334 128.002 998.754 133.174 1000.51 139.462C1002.26 145.773 1003.12 153.437 1003.12 162.524V279.234H965.234V162.358C965.234 159.226 964.902 156.663 964.262 154.647C963.621 152.63 962.743 151.016 961.652 149.806C960.561 148.691 959.28 147.908 957.833 147.458C956.386 147.007 954.915 146.769 953.421 146.769C951.831 146.769 950.408 146.983 949.151 147.363C947.893 147.766 946.731 148.312 945.64 149.023C944.738 149.735 943.932 150.518 943.244 151.372C942.556 152.227 941.939 153.223 941.441 154.314V279.186H904.766V162.168C904.766 159.036 904.458 156.474 903.865 154.457C903.272 152.44 902.465 150.874 901.469 149.759C900.378 148.644 899.121 147.861 897.721 147.41C896.321 146.959 894.827 146.722 893.237 146.722C891.435 146.722 889.845 147.03 888.446 147.624C887.046 148.217 885.789 149.095 884.698 150.186C883.891 150.993 883.203 151.942 882.61 153.057C882.017 154.172 881.471 155.382 880.973 156.687V279.139H843.089V115.64H878.886L880.072 135.452Z" fill="white"/>
<path d="M1081.61 276.055C1071.44 271.926 1062.68 266.279 1055.4 259.114C1048.12 252.067 1042.5 243.716 1038.56 234.083C1034.62 224.45 1032.65 214.152 1032.65 203.167V197.117C1032.65 184.613 1034.6 173.201 1038.49 162.88C1042.38 152.559 1047.81 143.661 1054.81 136.188C1061.78 128.737 1070.09 122.924 1079.67 118.796C1089.25 114.668 1099.69 112.604 1110.96 112.604C1122.23 112.604 1133.04 114.549 1142.18 118.416C1151.31 122.308 1159.07 127.765 1165.47 134.811C1171.76 141.858 1176.55 150.352 1179.85 160.294C1183.15 170.211 1184.78 181.173 1184.78 193.178V211.021H1074.88V211.471C1076.28 218.02 1078.08 223.287 1080.26 227.273C1082.45 231.259 1085.41 234.866 1089.09 238.092C1092.88 241.414 1097.22 244 1102.11 245.803C1107 247.607 1112.34 248.532 1118.12 248.532C1126.31 248.532 1134.23 246.966 1141.94 243.834C1149.63 240.702 1155.87 236.028 1160.66 229.764L1181.46 252.447C1176.17 260.016 1167.77 266.873 1156.32 273.018C1144.83 279.163 1131.27 282.247 1115.58 282.247C1103.11 282.247 1091.77 280.183 1081.59 276.055H1081.61ZM1097.79 149.142C1093.9 150.803 1090.51 153.199 1087.62 156.331C1084.63 159.463 1082.14 163.188 1080.12 167.53C1078.13 171.872 1076.63 176.712 1075.64 182.051H1143.91V178.729C1143.91 174.292 1143.1 170.116 1141.51 166.178C1139.92 162.239 1137.72 158.823 1134.92 155.904C1132.12 153.081 1128.7 150.85 1124.67 149.166C1120.61 147.505 1115.96 146.675 1110.67 146.675C1105.98 146.675 1101.68 147.505 1097.79 149.166V149.142Z" fill="white"/>
<path d="M1363.79 240.228C1359.76 249.101 1354.32 256.646 1347.54 262.91C1340.76 269.15 1332.67 273.967 1323.27 277.36C1313.88 280.729 1303.51 282.413 1292.13 282.413C1283.13 282.413 1274.83 281.227 1267.19 278.854C1259.55 276.482 1252.7 273.089 1246.6 268.652C1241 264.524 1236.05 259.541 1231.7 253.681C1227.36 247.844 1223.69 241.39 1220.7 234.32C1217.8 227.273 1215.57 219.515 1214.03 211.044C1212.49 202.574 1211.71 193.605 1211.71 184.139V154.504C1211.71 145.631 1212.39 137.184 1213.79 129.188C1215.19 121.169 1217.28 113.742 1220.08 106.885C1223.28 98.51 1227.46 91.0599 1232.65 84.5114C1237.85 77.963 1243.73 72.411 1250.33 67.8792C1256.21 64.0593 1262.69 61.0935 1269.71 59.0293C1276.75 56.9651 1284.3 55.9211 1292.39 55.9211C1304.37 55.9211 1315.02 57.6294 1324.36 61.0698C1333.69 64.4864 1341.66 69.374 1348.25 75.7327C1354.85 82.0914 1360.02 89.8499 1363.81 99.0083C1367.61 108.19 1370.01 118.511 1371 129.995H1329.08C1328.68 123.446 1327.71 117.705 1326.17 112.77C1324.62 107.834 1322.39 103.706 1319.5 100.361C1316.51 97.1339 1312.79 94.6901 1308.35 93.0292C1303.92 91.3684 1298.6 90.5379 1292.41 90.5379C1289.11 90.5379 1286.05 90.8938 1283.21 91.6056C1280.36 92.3174 1277.75 93.3614 1275.35 94.785C1271.25 97.2051 1267.79 100.669 1264.94 105.13C1262.09 109.614 1259.82 114.834 1258.13 120.789C1256.83 125.416 1255.88 130.541 1255.28 136.14C1254.69 141.74 1254.38 147.766 1254.38 154.196V184.139C1254.38 192.917 1254.86 200.747 1255.81 207.651C1256.76 214.556 1258.23 220.582 1260.22 225.707C1261.62 229.242 1263.28 232.351 1265.22 235.079C1267.17 237.808 1269.4 240.062 1271.89 241.889C1274.59 243.905 1277.61 245.4 1280.95 246.349C1284.3 247.298 1288.02 247.796 1292.1 247.796C1297.58 247.796 1302.54 247.085 1306.93 245.685C1311.32 244.285 1315.06 242.055 1318.15 239.041C1321.23 236.028 1323.7 232.137 1325.48 227.392C1327.28 222.647 1328.37 216.952 1328.78 210.309H1370.86C1370.17 221.389 1367.8 231.378 1363.74 240.251L1363.79 240.228Z" fill="white"/>
<path d="M1396.45 162.88C1399.84 152.749 1404.85 143.946 1411.42 136.496C1417.92 129.046 1425.87 123.185 1435.31 118.962C1444.75 114.739 1455.54 112.604 1467.73 112.604C1479.93 112.604 1490.75 114.715 1500.23 118.962C1509.72 123.185 1517.74 129.046 1524.34 136.496C1530.84 143.946 1535.77 152.749 1539.16 162.88C1542.55 173.011 1544.26 184.02 1544.26 195.907V199.086C1544.26 211.092 1542.55 222.148 1539.16 232.279C1535.77 242.411 1530.84 251.213 1524.34 258.663C1517.84 266.113 1509.87 271.95 1500.38 276.126C1490.89 280.302 1480.12 282.39 1468.04 282.39C1455.97 282.39 1445.01 280.302 1435.47 276.126C1425.94 271.95 1417.92 266.113 1411.44 258.663C1404.85 251.213 1399.87 242.411 1396.47 232.279C1393.08 222.148 1391.37 211.092 1391.37 199.086V195.907C1391.37 184.02 1393.06 173.011 1396.47 162.88H1396.45ZM1434.95 218.376C1436.26 224.379 1438.3 229.598 1441.09 234.035C1443.89 238.567 1447.5 242.15 1451.96 244.76C1456.4 247.369 1461.76 248.698 1468.07 248.698C1474.38 248.698 1479.41 247.393 1483.79 244.76C1488.18 242.15 1491.79 238.567 1494.56 234.035C1497.27 229.598 1499.26 224.379 1500.57 218.376C1501.87 212.373 1502.51 205.967 1502.51 199.11V195.931C1502.51 189.287 1501.87 182.976 1500.57 177.021C1499.26 171.065 1497.27 165.822 1494.56 161.29C1491.77 156.758 1488.18 153.176 1483.79 150.566C1479.41 147.956 1474.07 146.627 1467.78 146.627C1461.5 146.627 1456.3 147.932 1451.91 150.566C1447.52 153.176 1443.92 156.758 1441.14 161.29C1438.34 165.822 1436.3 171.065 1435 177.021C1433.69 182.976 1433.05 189.264 1433.05 195.931V199.11C1433.05 205.967 1433.69 212.397 1435 218.376H1434.95Z" fill="white"/>
<path d="M1569.67 115.64H1608.15L1609.64 131.656C1611.85 128.927 1614.25 126.483 1616.83 124.324C1619.42 122.165 1622.22 120.267 1625.23 118.654C1628.81 116.732 1632.8 115.261 1637.14 114.193C1641.48 113.125 1646.15 112.604 1651.13 112.604C1661.41 112.604 1670.49 114.597 1678.39 118.583C1686.27 122.569 1692.91 128.192 1698.29 135.428C1703.68 142.783 1707.76 151.586 1710.49 161.812C1713.24 172.038 1714.61 183.356 1714.61 195.765V198.944C1714.61 210.831 1713.24 221.864 1710.49 232.042C1707.74 242.221 1703.73 251 1698.44 258.355C1693.05 265.805 1686.41 271.665 1678.51 275.889C1670.61 280.112 1661.6 282.247 1651.42 282.247C1646.03 282.247 1641.05 281.654 1636.52 280.515C1631.97 279.353 1627.77 277.668 1623.88 275.461C1621.58 274.062 1619.39 272.496 1617.28 270.764C1615.2 269.055 1613.18 267.134 1611.28 265.022V342.133H1569.65V115.64H1569.67ZM1671.13 176.499C1669.87 170.496 1667.95 165.276 1665.37 160.839C1662.66 156.497 1659.25 153.081 1655.12 150.566C1650.97 148.051 1645.96 146.793 1640.08 146.793C1636.69 146.793 1633.58 147.125 1630.8 147.766C1628.01 148.43 1625.47 149.356 1623.17 150.566C1620.58 151.989 1618.3 153.745 1616.36 155.857C1614.41 157.968 1612.73 160.436 1611.33 163.259V231.591C1612.63 234.201 1614.2 236.574 1616.05 238.686C1617.9 240.797 1620.01 242.624 1622.41 244.119C1624.71 245.542 1627.34 246.61 1630.35 247.369C1633.34 248.129 1636.69 248.508 1640.39 248.508C1646.27 248.508 1651.3 247.203 1655.43 244.57C1659.58 241.96 1662.95 238.377 1665.53 233.845C1668.12 229.314 1670.02 224.046 1671.23 218.044C1672.41 212.041 1673.03 205.682 1673.03 198.92V195.741C1673.03 188.884 1672.41 182.454 1671.16 176.475L1671.13 176.499Z" fill="white"/>
<path d="M1837.39 115.64V245.044H1881.28V279.21H1749.22V245.044H1795.33V149.949H1749.22V115.64H1837.42H1837.39ZM1794.05 64.7711C1795.19 61.9951 1796.83 59.5987 1798.92 57.582C1801 55.6602 1803.54 54.1654 1806.48 53.0503C1809.42 51.9351 1812.7 51.3894 1816.28 51.3894C1823.66 51.3894 1829.54 53.4773 1833.88 57.6532C1838.22 61.829 1840.41 67.2149 1840.41 73.7634C1840.41 80.3119 1838.22 85.674 1833.88 89.8736C1829.54 94.0495 1823.68 96.1374 1816.28 96.1374C1812.7 96.1374 1809.42 95.5917 1806.48 94.4765C1803.54 93.3614 1801.03 91.8192 1798.92 89.7787C1796.83 87.8569 1795.19 85.5317 1794.05 82.7557C1792.91 79.9797 1792.32 76.9902 1792.32 73.7634C1792.32 70.5366 1792.89 67.5471 1794.05 64.7711Z" fill="white"/>
<path d="M2010.43 47V245.044H2056.85V279.21H1919.83V245.044H1968.35V81.3321H1919.83V47H2010.43Z" fill="white"/>
<path d="M2085.57 162.88C2088.96 152.749 2093.97 143.946 2100.54 136.496C2107.04 129.046 2114.99 123.185 2124.43 118.962C2133.87 114.739 2144.66 112.604 2156.86 112.604C2169.05 112.604 2179.87 114.715 2189.36 118.962C2198.84 123.185 2206.86 129.046 2213.46 136.496C2219.96 143.946 2224.89 152.749 2228.28 162.88C2231.68 173.011 2233.38 184.02 2233.38 195.907V199.086C2233.38 211.092 2231.68 222.148 2228.28 232.279C2224.89 242.411 2219.96 251.213 2213.46 258.663C2206.96 266.113 2198.99 271.95 2189.5 276.126C2180.01 280.302 2169.24 282.39 2157.16 282.39C2145.09 282.39 2134.13 280.302 2124.59 276.126C2115.06 271.95 2107.04 266.113 2100.56 258.663C2093.97 251.213 2088.99 242.411 2085.6 232.279C2082.2 222.148 2080.5 211.092 2080.5 199.086V195.907C2080.5 184.02 2082.18 173.011 2085.6 162.88H2085.57ZM2124.05 218.376C2125.35 224.379 2127.39 229.598 2130.19 234.035C2132.99 238.567 2136.6 242.15 2141.06 244.76C2145.49 247.369 2150.85 248.698 2157.16 248.698C2163.48 248.698 2168.5 247.393 2172.89 244.76C2177.28 242.15 2180.89 238.567 2183.66 234.035C2186.37 229.598 2188.36 224.379 2189.66 218.376C2190.97 212.373 2191.61 205.967 2191.61 199.11V195.931C2191.61 189.287 2190.97 182.976 2189.66 177.021C2188.36 171.065 2186.37 165.822 2183.66 161.29C2180.86 156.758 2177.28 153.176 2172.89 150.566C2168.5 147.956 2163.17 146.627 2156.88 146.627C2150.59 146.627 2145.4 147.932 2141.01 150.566C2136.62 153.176 2133.02 156.758 2130.24 161.29C2127.44 165.822 2125.4 171.065 2124.1 177.021C2122.79 182.976 2122.15 189.264 2122.15 195.931V199.11C2122.15 205.967 2122.79 212.397 2124.1 218.376H2124.05Z" fill="white"/>
<path d="M2332.56 115.64H2393.05V146.627H2332.56V216.928C2332.56 222.884 2333.23 227.843 2334.58 231.829C2335.93 235.815 2337.85 238.97 2340.34 241.272C2342.83 243.692 2345.85 245.4 2349.41 246.42C2352.94 247.417 2356.93 247.939 2361.31 247.939C2364.52 247.939 2367.77 247.796 2371.11 247.488C2374.46 247.18 2377.68 246.776 2380.77 246.278C2383.76 245.875 2386.58 245.424 2389.23 244.926C2391.87 244.427 2394.15 243.929 2396.04 243.407L2400.08 272.282C2397.18 273.99 2393.79 275.485 2389.9 276.743C2386.01 278 2381.86 279.044 2377.47 279.851C2373.08 280.658 2368.5 281.298 2363.76 281.749C2359.01 282.2 2354.34 282.437 2349.76 282.437C2340.87 282.437 2332.82 281.251 2325.59 278.878C2318.35 276.505 2312.19 272.804 2307.09 267.774C2301.89 262.839 2297.9 256.504 2295.11 248.793C2292.31 241.082 2290.91 231.829 2290.91 221.057V146.675H2253.92V115.688H2290.91V75.5903H2332.54V115.664L2332.56 115.64Z" fill="white"/>
</svg>
